<?xml version="1.0" encoding="UTF-8" standalone="no"?>
<!-- Created with Inkscape (http://www.inkscape.org/) -->

<svg
   version="1.1"
   id="svg1"
   width="642.98785"
   height="642.4798"
   viewBox="0 0 642.98786 642.4798"
   xmlns="http://www.w3.org/2000/svg"
   xmlns:svg="http://www.w3.org/2000/svg">
  <defs
     id="defs1" />
  <g
     id="g1"
     transform="translate(-0.52173441,-0.35908589)">
    <path
       style="fill:#000000"
       d="m 318.08001,642.37028 c -5.192,-0.22909 -14.696,-0.49001 -21.12,-0.57982 -11.76959,-0.16454 -17.232,-0.54502 -25.91029,-1.80477 -21.71048,-3.1515 -48.06097,-10.05906 -67.36971,-17.66039 -8.97505,-3.53323 -40.78338,-19.67985 -51.39254,-26.088 -14.19218,-8.57236 -32.86707,-22.78887 -45.88747,-34.93245 -1.936,-1.80562 -5.49073,-4.93585 -7.899397,-6.95605 -2.93726,-2.46355 -5.554711,-5.04074 -7.948509,-7.82625 -1.96301,-2.28424 -5.303262,-6.05427 -7.422782,-8.37785 -10.595205,-11.61527 -18.187674,-21.37354 -28.931734,-37.18469 -2.272329,-3.344 -5.042689,-7.16 -6.156355,-8.48 -2.172749,-2.5753 -3.264986,-4.54212 -5.597759,-10.08 -0.815519,-1.936 -3.152442,-6.688 -5.193163,-10.56 -4.927971,-9.35018 -7.542665,-14.56408 -9.610586,-19.16423 -0.94057,-2.09232 -2.270233,-4.54032 -2.954806,-5.44 -1.791848,-2.35487 -1.957106,-2.76929 -2.634878,-6.60756 -0.41132,-2.32933 -1.227018,-5.07227 -2.488129,-8.36681 -3.381263,-8.83327 -7.33289,-21.47295 -9.317178,-29.80196 -1.4798113,-6.21147 -4.3381725,-20.23291 -5.7200986,-28.05944 -1.5422146,-8.73432 -2.1546423,-13.53781 -2.6111317,-20.48 -0.1909547,-2.904 -0.4308472,-5.496 -0.5330944,-5.76 -0.2987476,-0.77136 -0.86540309,-23.58002 -0.85860423,-34.56 0.006538,-10.5583 0.29654085,-14.74663 1.91658233,-27.68 3.197516,-25.52693 7.6830986,-45.88152 14.8568976,-67.41735 4.469293,-13.41687 6.841104,-18.83097 17.877703,-40.80914 8.926516,-17.77618 12.056311,-23.38156 16.235043,-29.07653 1.669548,-2.27535 4.484045,-6.29699 6.254437,-8.93699 9.0444,-13.48696 18.697657,-25.07698 33.857546,-40.650493 3.784,-3.887243 9.255996,-9.51439 12.159996,-12.504771 13.06998,-13.458752 32.40538,-28.024787 53.54398,-40.336562 11.92013,-6.942654 31.14527,-16.829425 40.21603,-20.681599 27.80318,-11.807473 63.22696,-20.7856338 94.88,-24.0473417 9.79156,-1.00897706 16.15603,-1.22565414 30.54946,-1.04005017 13.91479,0.17943177 17.50163,0.34860056 28.65054,1.35126637 35.65191,3.2063177 69.66107,12.0428965 101.60001,26.3986675 22.98026,10.329061 50.45935,26.653025 65.11908,38.684005 14.66958,12.039062 20.69902,17.386194 30.51632,27.063024 13.92039,13.721204 24.21317,25.645524 34.66842,40.163854 14.89815,20.68782 29.1938,46.25632 37.87586,67.74296 12.02205,29.75252 19.91909,65.19265 21.89163,98.24468 0.42335,7.09372 0.4246,32.64259 0.002,41.08545 -0.90056,17.99181 -2.4029,29.83744 -5.59647,44.12692 -8.161,36.51595 -14.07465,53.31776 -29.95928,85.12 -4.12257,8.2537 -6.56317,12.71245 -8.92546,16.30603 -1.78824,2.72031 -3.79792,6.03231 -4.46595,7.36 -0.66803,1.32768 -4.26952,6.57869 -8.00333,11.6689 -16.882,23.01488 -23.97888,31.40355 -42.08023,49.73982 -6.97878,7.06935 -9.41009,9.31276 -12.62933,11.65336 -2.19271,1.59424 -6.72871,5.08375 -10.08,7.75447 -33.18346,26.44464 -65.63239,43.00867 -110.71542,56.5163 -20.0412,6.00468 -34.44038,8.54536 -54.09785,9.54536 -3.52,0.17906 -8.82311,0.68786 -11.78469,1.13067 -6.24112,0.93314 -11.10504,0.9868 -26.77531,0.29536 z m 19.2,-4.93326 c 2.904,-0.17601 7.944,-0.59836 11.2,-0.93855 3.256,-0.34019 8.51283,-0.69351 11.68183,-0.78514 6.38343,-0.18459 8.75594,-0.59293 22.71818,-3.91017 15.27298,-3.62865 24.79652,-6.29117 36.48,-10.19881 6.512,-2.17799 12.31543,-4.05504 12.89651,-4.17121 l 1.05652,-0.21123 -0.20067,-2.29095 c -0.86766,-9.90573 -3.42112,-26.45571 -5.5869,-36.21095 -2.5946,-11.68672 -2.78426,-13.26893 -3.52909,-29.44 -0.6309,-13.69775 -1.05873,-18.27827 -2.74978,-29.44 -1.19126,-7.86288 -2.03758,-15.08907 -2.04317,-17.44524 -0.003,-1.4095 0.0395,-1.4709 1.73161,-2.48301 3.77758,-2.25946 4.44294,-1.83656 8.10413,5.15093 5.7273,10.9307 9.17707,15.64261 20.89328,28.53732 4.67241,5.1424 30.80811,36.29787 36.04593,42.96912 2.94649,3.75285 4.33361,7.40162 3.17832,8.36043 -0.96786,0.80325 -2.61303,0.14293 -4.84438,-1.94438 -2.88739,-2.70102 -10.1121,-10.87526 -15.50708,-17.54517 -6.13969,-7.5906 -9.90022,-11.84 -10.47786,-11.84 -0.52792,0 -6.8906,3.41855 -12.40737,6.66626 -4.59605,2.70568 -9.53631,6.07335 -11.43858,7.79742 l -1.51858,1.37632 0.32255,3.36 c 0.1774,1.848 0.81929,6.816 1.42641,11.04 1.35671,9.4392 1.64669,12.29587 2.09515,20.64 0.19391,3.608 0.49495,7.1064 0.66897,7.77423 0.42801,1.64252 1.40583,2.08512 3.42483,1.55019 3.51996,-0.9326 21.33024,-9.44263 31.89925,-15.24195 13.04185,-7.1562 27.61831,-16.58615 39.13156,-25.31539 3.92235,-2.97389 9.59567,-7.0789 12.60736,-9.12224 3.01169,-2.04333 6.66026,-4.7327 8.10793,-5.97636 3.39484,-2.91644 18.01077,-18.11552 22.98773,-23.90492 8.37515,-9.74229 19.86768,-24.58547 25.02696,-32.32356 3.38848,-5.08218 4.17108,-6.64609 3.5695,-7.13304 -0.81503,-0.65973 -78.07462,-49.68979 -78.15859,-49.60058 -0.0485,0.0515 -1.19334,2.18162 -2.54416,4.73362 -3.87064,7.31248 -5.62879,9.32182 -9.09606,10.39567 -0.76237,0.23611 -0.76656,0.22457 -0.59416,-1.63894 0.36691,-3.96607 3.02343,-9.92378 8.40405,-18.84759 1.90655,-3.16203 5.00203,-8.48514 6.87883,-11.82914 6.05352,-10.78588 9.28673,-15.58363 12.50761,-18.56 l 1.73144,-1.6 0.0984,1.36034 c 0.23482,3.24582 -1.71056,7.83081 -7.75874,18.2862 -3.51927,6.08371 -5.6231,10.14788 -6.08015,11.74559 -0.16172,0.56532 0.20287,0.92634 2.2941,2.27172 1.3675,0.87978 7.31037,4.76354 13.20637,8.63058 33.61302,22.04593 61.84508,39.52622 63.70877,39.44619 0.24818,-0.0106 0.98523,-1.12665 1.63789,-2.48 0.65266,-1.35334 3.07771,-5.70062 5.38901,-9.66062 10.23155,-17.52994 23.90064,-48.64556 27.52725,-62.66163 1.01587,-3.92612 1.16117,-5.45142 0.53709,-5.63812 -0.22,-0.0658 -1.696,-0.50695 -3.28,-0.9803 -1.584,-0.47336 -6.84,-2.27998 -11.68,-4.01471 -4.84,-1.73474 -15.20801,-5.19565 -23.04001,-7.69091 -8.26329,-2.63268 -20.28386,-6.78415 -28.64,-9.89122 -7.92,-2.94491 -17.37016,-6.30874 -21.00035,-7.47518 -6.43563,-2.06788 -11.46445,-4.2699 -13.07965,-5.72733 -1.29827,-1.17146 -2.24,-2.52105 -2.24,-3.21017 0,-0.5991 0.14923,-0.63075 2.17366,-0.46102 7.92258,0.6642 25.46392,6.11851 61.98634,19.27407 11.088,3.99395 22.39201,8.04746 25.12001,9.00778 9.15342,3.22224 16.32,5.16899 16.32,4.43321 0,-0.0855 0.85402,-3.79354 1.89782,-8.24 4.38129,-18.66372 6.20116,-29.65336 6.47894,-39.12447 l 0.10324,-3.52 -3.52,-0.22595 c -5.49287,-0.35257 -11.70949,-1.09632 -26.24,-3.13932 -19.06977,-2.68122 -19.81844,-2.7687 -31.4435,-3.67409 -29.54241,-2.30084 -44.5625,-4.54995 -47.77888,-7.15441 l -0.68861,-0.55761 1.14674,-1.00685 c 2.0341,-1.78597 2.15937,-1.78887 17.46712,-0.4044 7.66542,0.69328 14.70927,1.34987 15.65301,1.45908 1.27713,0.14779 1.65619,0.10198 1.48244,-0.17917 -0.1284,-0.20775 -5.79537,-4.06892 -12.59326,-8.58038 -6.79789,-4.51146 -13.5509,-9.15832 -15.00669,-10.32634 -3.739,-2.99993 -10.49216,-9.4027 -11.57045,-10.97012 -1.14469,-1.66394 -1.90943,-3.89826 -2.16229,-6.31748 -0.16349,-1.56414 -0.11373,-1.88296 0.29383,-1.88296 1.11726,0 3.82663,2.39324 7.45601,6.58602 4.62075,5.33805 6.58045,6.90844 18.70452,14.98871 10.48786,6.9898 17.63265,11.40546 22.94847,14.18276 l 3.90846,2.04202 1.85154,-1.2751 c 1.01834,-0.7013 3.57813,-2.5777 5.68841,-4.16978 4.44469,-3.35324 7.93868,-5.47201 16.16312,-9.80138 13.50199,-7.10748 17.61655,-9.32583 20.96001,-11.30053 7.32854,-4.32837 13.03828,-8.49647 16.36521,-11.94659 l 1.64521,-1.70613 -0.45231,-4.32 C 631.37698,254.19808 617.64101,209.00387 600.062,175.84 c -8.01558,-15.12188 -23.46508,-39.02578 -26.51434,-41.02373 -0.89322,-0.58526 -0.78632,-0.65912 -1.71334,1.18373 -1.05054,2.08838 -2.72649,4.47139 -6.07646,8.64 -1.62651,2.024 -5.1756,7.02756 -7.88685,11.11903 -5.61,8.46587 -10.89763,15.63074 -19.1911,26.00441 -6.85317,8.57212 -9.21528,11.33643 -18.8666,22.07903 -8.46946,9.42709 -13.0656,14.81361 -16.58321,19.43493 -2.62722,3.45156 -5.4558,6.2787 -6.57463,6.57128 -1.00749,0.26347 -1.61545,-0.57454 -1.61545,-2.22674 0,-3.22456 2.99315,-7.30484 17.44563,-23.78194 5.99695,-6.83705 9.18764,-10.75466 9.93293,-12.19588 l 0.48353,-0.93504 -2.81105,-2.96816 c -4.18501,-4.41893 -15.11951,-19.51732 -18.19605,-25.12519 l -0.93499,-1.70427 -1.47026,0.18869 c -3.24708,0.41674 -8.40809,2.43994 -22.63335,8.87266 -12.03241,5.44111 -16.04276,7.00042 -19.99091,7.77291 -1.6068,0.31439 -2.46314,0.33689 -3.28,0.0862 -1.24321,-0.38155 -1.27769,-0.48029 -0.67315,-1.92717 0.86232,-2.06382 3.81166,-3.97712 9.45531,-6.13386 1.5138,-0.5785 12.18436,-5.01783 23.71236,-9.86518 41.81582,-17.5829 68.78503,-28.5939 77.36,-31.58458 2.156,-0.75194 3.92,-1.50765 3.92,-1.67935 0,-0.60937 -1.95293,-3.95333 -3.55808,-6.09241 C 560.73942,116.46813 554.32153,109.60154 544.44,99.833754 531.54494,87.087132 522.31962,79.024321 512.64002,72.040979 l -3.04,-2.193205 -0.8803,0.618115 c -2.15703,1.514602 -11.28977,12.420412 -18.96509,22.647079 -4.72333,6.293405 -7.50026,9.608562 -15.58438,18.604962 -9.82737,10.9364 -14.19573,16.68501 -25.43461,33.47109 -7.22981,10.79823 -8.44658,12.86881 -10.52088,17.90341 -1.50745,3.65875 -1.56854,3.72996 -2.69868,3.14554 -1.21058,-0.62602 -2.16176,-1.89364 -2.57642,-3.43356 -0.36499,-1.35548 0.16911,-8.6501 1.78687,-24.40441 0.43375,-4.224 1.2974,-13.224 1.91923,-20 0.62182,-6.776 2.13295,-21.319998 3.35806,-32.319998 2.37164,-21.294525 3.91185,-36.511019 3.7155,-36.707364 -0.51116,-0.511164 -3.72548,4.835126 -9.1379,15.198802 -2.14032,4.098291 -4.33724,8.202292 -4.88203,9.12 -0.5448,0.917709 -5.52227,10.596562 -11.06104,21.508562 -16.99748,33.486908 -23.96722,46.222678 -26.59923,48.604608 -0.64885,0.5872 -0.70293,0.58451 -2.61359,-0.13003 -1.82288,-0.68171 -1.93784,-0.78431 -1.75005,-1.56211 0.46169,-1.91224 16.07417,-32.89836 29.84452,-59.232468 7.21674,-13.801133 9.28359,-17.610859 15.27732,-28.160001 7.42761,-13.072808 11.6827,-21.050823 11.6827,-21.904308 0,-0.06933 -0.54,-0.304243 -1.2,-0.522023 -0.66,-0.21778 -3.864,-1.505537 -7.12,-2.861683 -10.27962,-4.281526 -17.21545,-6.492171 -36.48,-11.627194 -14.65415,-3.906107 -19.21729,-4.888653 -32,-6.890308 -19.13287,-2.9960313 -36.98303,-4.3951697 -45.76595,-3.5872459 -2.20327,0.2026744 -4.41835,0.478793 -4.9224,0.6135969 l -0.91645,0.245098 2.88021,2.867033 c 4.04636,4.027855 5.20458,6.630727 5.20458,11.696275 0,6.188811 -2.72787,12.650882 -7.54224,17.866815 -4.05444,4.39263 -6.74386,6.613195 -14.83855,12.251694 -5.65713,3.940569 -8.66241,6.479927 -8.65529,7.313422 0.003,0.302503 1.28363,0.871541 3.76,1.670178 13.13289,4.235403 24.54189,14.349253 28.9044,25.623185 2.10434,5.438196 2.82525,12.585404 1.71062,16.959274 -2.86962,11.26053 -18.58739,25.65806 -33.09894,30.31875 -1.87985,0.60375 -2.75494,1.04564 -2.83311,1.43063 -0.12603,0.62063 -1.36956,0.65091 14.19311,-0.34559 17.15118,-1.09822 31.34856,-0.97877 40.32,0.33924 31.22197,4.58687 71.93495,22.94867 99.38124,44.82153 7.48706,5.96668 12.61441,11.46489 22.14348,23.74507 25.16592,32.43151 37.85004,61.89474 41.97292,97.49657 1.75756,15.17683 1.45522,34.23218 -0.79846,50.32322 -8.59401,61.36042 -47.48421,113.98122 -105.41917,142.63854 -27.65245,13.67818 -54.28744,19.64044 -84.48001,18.9109 -27.6669,-0.66851 -44.31025,-4.00035 -69.44,-13.90125 -14.65872,-5.7754 -38.91047,-20.27059 -49.14871,-29.37602 -13.90423,-12.36579 -27.3212,-27.5382 -37.17195,-42.03539 -8.06882,-11.87477 -12.9287,-21.36908 -20.41652,-39.88592 -3.07055,-7.59325 -5.69082,-13.74075 -5.82282,-13.66111 -0.132,0.0796 -0.24304,0.5323 -0.24675,1.00591 -0.0117,1.49307 -1.46115,5.05634 -2.9958,7.36478 -4.1124,6.18593 -12.05486,10.96625 -21.71164,13.06755 -3.24664,0.70646 -11.974916,0.79584 -15.605816,0.15981 -9.676088,-1.69499 -16.750292,-4.58605 -29.280001,-11.96605 -2.288,-1.34763 -4.532794,-2.53984 -4.988431,-2.64935 -0.796597,-0.19147 -0.869238,-0.0845 -1.890426,2.78263 -2.177803,6.11458 -7.763213,16.36315 -20.808831,38.18175 -8.919846,14.91831 -9.40829,15.8381 -9.174777,17.27707 0.569521,3.50955 8.844856,21.45813 12.343116,26.7713 1.427726,2.16843 3.119907,4.08737 3.321181,3.76622 0.0464,-0.074 0.538213,-1.07059 1.092926,-2.21459 3.476509,-7.16971 17.201177,-19.12834 37.711568,-32.859 15.126191,-10.12621 47.347421,-24.85297 57.993681,-26.50608 1.26976,-0.19717 1.36,-0.16194 1.36,0.53097 0,0.49614 -0.69085,1.40308 -2.08405,2.73596 -1.71489,1.64062 -2.94777,2.41717 -6.96,4.38383 -2.68178,1.31452 -8.11595,3.60581 -12.07595,5.09177 -10.94519,4.10709 -20.13871,8.58801 -31.520006,15.36288 -14.181119,8.44149 -23.380041,15.47445 -33.965417,25.96797 -6.213674,6.15975 -8.34449,10.06075 -8.044945,14.7283 0.136853,2.13247 0.32479,2.65207 2.199998,6.08252 3.690414,6.75114 5.0615,7.71564 10.850363,7.63279 6.806464,-0.0974 16.489661,-2.13585 24.856287,-5.23254 5.241105,-1.93987 15.55451,-6.96135 21.38371,-10.4115 5.2683,-3.11816 9.69969,-5.34294 20.32001,-10.20161 4.664,-2.13373 12.12397,-5.80208 16.57771,-8.15188 11.59677,-6.11849 17.23511,-8.49541 20.70229,-8.72735 l 1.6,-0.10703 -0.0488,1.05463 c -0.10681,2.30956 -2.40791,4.31032 -7.21326,6.2718 -3.52408,1.43849 -38.83355,18.45888 -46.49797,22.41364 -3.168,1.63465 -8.1658,4.22417 -11.10622,5.75447 -13.71397,7.13728 -21.831398,9.9122 -34.288677,11.7215 -7.686948,1.11645 -7.653133,1.10725 -7.387622,2.00977 1.837416,6.24567 30.274215,40.81272 36.109834,43.89419 l 1.212018,0.64 2.540247,-2.66944 c 1.39713,-1.46819 4.79661,-5.35619 7.55438,-8.64 2.75777,-3.28381 6.61481,-7.77056 8.57118,-9.97056 10.69453,-12.0263 37.02344,-42.08441 40.36303,-46.08 8.76565,-10.48752 14.78685,-15.91335 17.33308,-15.61921 1.32165,0.15268 1.30292,1.58753 -0.0547,4.19221 -1.52933,2.93404 -2.13079,4.88886 -4.50046,14.627 -2.66189,10.939 -3.17459,13.68952 -4.17534,22.4 -1.20262,10.46759 -1.44907,11.75612 -4.78696,25.02891 -5.21084,20.72035 -8.96477,38.75499 -9.61058,46.17109 -0.10728,1.232 -0.26503,2.888 -0.35055,3.68 l -0.15548,1.44 1.16181,-1.28 c 3.24229,-3.57212 7.99464,-10.52574 12.1378,-17.76 3.19841,-5.58463 3.52392,-6.04699 9.46227,-13.44 10.22171,-12.72563 31.36309,-37.11217 40.43353,-46.64 3.12096,-3.27834 3.7211,-3.63238 4.99849,-2.94874 1.48869,0.79672 0.22721,3.14461 -4.43596,8.25624 -1.55165,1.70087 -4.10791,4.6765 -5.68057,6.6125 -1.57266,1.936 -6.24808,7.48 -10.38982,12.32 -17.54821,20.50667 -22.60693,26.91229 -30.07301,38.08 -2.05911,3.08 -6.07786,8.97727 -8.93056,13.10504 -5.50901,7.97136 -8.35516,12.46645 -8.34479,13.1794 0.003,0.23956 0.97549,0.89321 2.16,1.45255 1.18452,0.55934 5.75367,3.13024 10.15367,5.7131 21.32832,12.52003 28.95085,16.45001 32.97633,17.00177 l 1.38384,0.18967 1.4201,-2.20076 c 3.13869,-4.86408 12.5359,-23.66859 19.40995,-38.84077 3.46391,-7.64541 3.96791,-9.04781 5.58903,-15.55155 1.7854,-7.16281 4.31936,-13.71709 10.19436,-26.36845 1.67547,-3.608 3.4976,-8.072 4.04917,-9.92 0.55156,-1.848 1.37169,-4.404 1.8225,-5.68 0.75544,-2.13824 0.89039,-2.32 1.72263,-2.32 0.50224,0 1.33556,0.36399 1.87769,0.82016 0.87843,0.73915 1.3787,0.85037 5.06455,1.12598 8.49206,0.63498 11.03197,1.91554 17.86823,9.00865 5.48203,5.68801 9.09917,11.20213 11.70604,17.84521 5.01063,12.76852 4.94982,25.8536 -0.18265,39.30295 -3.70171,9.70015 -7.86843,15.07843 -20.42709,26.36669 -9.0975,8.17723 -16.62418,11.20268 -31.27468,12.5713 -7.6592,0.71551 -10.6178,1.59381 -7.60088,2.25644 0.56747,0.12464 3.69782,1.20282 6.95633,2.39596 11.05024,4.04619 34.28874,9.80228 50.24455,12.4454 9.96095,1.65006 20.8166,2.45495 20.78708,1.54126 -0.007,-0.22 2.54889,-25.00531 5.68,-55.07847 l 5.69292,-54.67847 2.08,0.2023 c 3.37182,0.32796 11.18683,1.98752 13.52963,2.87309 3.02565,1.14369 5.26538,2.72015 7.9798,5.61667 3.74484,3.99607 6.87643,9.9293 8.6269,16.34488 1.03391,3.78931 1.03718,10.37722 0.007,14.50877 -2.67393,10.72605 -8.72758,18.55023 -24.06353,31.10151 -7.0198,5.74516 -9.91746,8.55056 -10.84405,10.4988 -0.47303,0.99457 -0.72533,2.58441 -0.99834,6.29092 -0.20093,2.728 -0.71459,7.624 -1.14146,10.88 -1.24053,9.46226 -0.99452,11.29586 1.63178,12.16262 2.53202,0.83564 21.79377,1.22341 31.51207,0.63439 z m 28.48001,-6.92532 c -1.53136,-0.62276 -2.18637,-2.74669 -1.12,-3.63169 0.60199,-0.49961 0.60293,-1.29375 0.005,-4.13667 -0.2613,-1.24218 -0.61626,-5.31959 -0.78879,-9.06092 -0.17254,-3.74132 -0.59995,-9.61041 -0.94981,-13.04241 -0.6978,-6.84522 -1.40525,-17.47678 -2.0016,-30.08 -0.54028,-11.4181 -0.54644,-38.94665 -0.01,-42.86816 0.228,-1.66549 0.48804,-3.10166 0.57786,-3.19148 0.0898,-0.0898 0.55115,0.0489 1.02517,0.30816 1.01133,0.55325 2.46624,3.29726 2.96469,5.59148 0.20622,0.94919 0.45789,8.95418 0.61872,19.68 0.1491,9.944 0.4259,21.536 0.61509,25.76 0.46533,10.38899 0.95506,19.24757 1.1499,20.8 0.0884,0.704 0.30118,5.528 0.47294,10.72 0.4071,12.30619 0.98432,16.11645 2.57004,16.9651 1.24388,0.6657 6.69953,-0.47622 19.72078,-4.12777 9.99946,-2.80415 16.12912,-4.35003 19.75753,-4.98277 2.96892,-0.51774 7.26838,-0.62313 8.33906,-0.20441 0.59997,0.23463 0.5914,0.28065 -0.19958,1.07163 -2.4598,2.4598 -9.16967,4.61431 -29.06731,9.33338 -6.248,1.48182 -13.12025,3.20521 -15.27167,3.82976 -3.8258,1.11062 -7.44977,1.6566 -8.40833,1.26677 z m 145.65334,-69.93475 c -2.78249,-0.29048 -5.82324,-1.55602 -6.94672,-2.89119 -0.43264,-0.51417 -0.78662,-1.06781 -0.78662,-1.2303 0,-0.43385 1.85884,-0.37068 6.78167,0.23048 4.07578,0.49772 4.53375,0.49827 6.56,0.008 3.61493,-0.87487 7.68413,-3.08755 10.48011,-5.69869 4.31347,-4.0283 6.57822,-7.88161 6.57822,-11.19237 0,-5.41907 -4.83615,-14.41548 -11.30478,-21.0296 -6.59827,-6.74668 -11.26311,-8.3159 -28.21522,-9.4914 -4.048,-0.28069 -8.84478,-0.72713 -10.65951,-0.99209 -6.34495,-0.92636 -11.4918,-2.90623 -15.61661,-6.00732 -6.17021,-4.63884 -10.74913,-13.83325 -10.77814,-21.64235 -0.017,-4.56941 0.9887,-6.68193 4.49106,-9.43392 1.81729,-1.42794 5.27318,-3.39104 6.77103,-3.84623 0.73167,-0.22235 0.75903,-0.17909 0.5809,0.91858 -0.10281,0.63356 -0.99185,2.48071 -1.97564,4.10478 -2.84663,4.6993 -3.32665,7.4376 -2.1256,12.1256 2.13429,8.33072 7.28241,13.21633 16.45591,15.6168 3.12217,0.81699 7.21207,1.41903 15.4166,2.26934 7.31821,0.75846 11.07169,1.3477 14.72,2.31085 6.96606,1.83903 13.98741,6.03097 19.68875,11.75472 3.19234,3.2049 5.45411,6.47857 6.83602,9.89441 0.94919,2.34624 0.98892,2.63262 0.98291,7.08507 -0.007,5.38834 -0.62208,8.25095 -2.74896,12.79938 -4.62753,9.89621 -14.40592,15.46287 -25.18538,14.33756 z m 3.78666,-295.57833 c -0.56807,-0.15901 -0.83011,-0.48317 -0.90385,-1.11813 -0.25854,-2.22623 4.4173,-4.8645 14.98385,-8.45441 3.608,-1.22579 15.344,-5.64565 26.08,-9.82191 25.01281,-9.72988 42.45752,-16.37162 49.03064,-18.66746 2.86072,-0.99919 5.20312,-1.92706 5.20534,-2.06193 0.002,-0.13487 -2.58797,-8.8364 -5.75597,-19.33673 -3.168,-10.50033 -5.76001,-19.28198 -5.76001,-19.51478 0,-0.27851 0.42589,-0.42327 1.24531,-0.42327 1.09203,0 1.2723,0.10832 1.46459,0.88 0.1206,0.484 0.72686,2.032 1.34725,3.44 0.62039,1.408 1.89001,4.72 2.82137,7.36 0.93137,2.64 2.80975,7.752 4.17417,11.36 1.36442,3.608 3.67162,10.16 5.1271,14.56 1.45548,4.4 4.09458,12.26315 5.86466,17.47367 1.77008,5.21051 3.79869,11.69051 4.50802,14.4 1.34231,5.12733 1.9545,9.24634 1.37424,9.24634 -0.7464,0 -3.12768,-3.13433 -4.33909,-5.71127 C 620.95178,257.08594 618.60703,250.512 616.4571,244 l -3.90898,-11.84 -1.1697,0.0722 c -1.3769,0.085 -11.34024,3.33297 -24.3384,7.93403 -14.69384,5.2013 -50.21728,18.19654 -55.42204,20.27458 -9.21648,3.67976 -14.40692,5.12067 -16.41796,4.55776 z M 356.33141,130.04488 c 0.54347,-3.79555 4.7821,-19.611 8.60965,-32.124878 2.47572,-8.094131 6.88672,-24.30912 11.09893,-40.800001 1.93307,-7.568 4.31649,-16.712 5.29648,-20.32 0.98,-3.608 2.25724,-8.379829 2.83832,-10.604064 0.58109,-2.224235 1.37366,-4.781283 1.76128,-5.682329 0.76784,-1.784887 2.51738,-3.553608 3.51508,-3.553608 0.54142,0 0.62887,0.222789 0.62887,1.602107 0,5.937291 -3.63532,21.471344 -11.68192,49.917894 -2.42398,8.569298 -13.56759,52.285009 -14.55688,57.105759 -0.97765,4.76402 -1.75524,5.59624 -5.47769,5.86258 l -2.25619,0.16143 z m -131.8514,481.4541 c 8.72116,-0.65881 15.00883,-2.11957 20.48,-4.75793 4.16164,-2.00687 6.43672,-3.64369 11.45818,-8.24365 6.763,-6.19532 10.5219,-11.07585 13.99991,-18.17739 3.45411,-7.05275 4.49975,-12.41042 4.5591,-23.36 0.0371,-6.84664 0.0138,-7.1191 -0.85086,-9.92 -2.45678,-7.9588 -7.07748,-15.58639 -13.40322,-22.12523 -5.1164,-5.28876 -9.97578,-8.4103 -14.37826,-9.23621 l -1.12247,-0.21058 -0.3859,2.34601 c -0.61491,3.73824 -2.08389,7.5771 -5.97945,15.62601 -3.31835,6.85629 -3.99649,8.59323 -7.68356,19.68 -4.33562,13.03694 -4.98788,14.62746 -12.926,31.52 -8.41402,17.90527 -11.52747,24.95424 -11.52747,26.09864 0,0.26509 0.324,0.61222 0.72,0.77139 1.00335,0.4033 11.6463,0.39639 17.04,-0.0111 z m 85.92593,-15.37635 c 9.93197,-7.45496 19.56764,-17.80221 23.42696,-25.15703 2.25439,-4.29624 2.97329,-6.96175 2.91433,-10.80559 -0.1453,-9.47314 -6.48682,-22.01618 -12.82058,-25.35812 -2.45249,-1.29402 -7.5737,-2.96188 -9.09456,-2.96188 -1.72028,0 -2.1046,0.7556 -2.36009,4.64 -0.24075,3.66031 -5.15725,58.09225 -5.45556,60.4 -0.10807,0.836 -0.0723,1.52 0.0795,1.52 0.15177,0 1.64129,-1.02482 3.31003,-2.27738 z M 146.04747,580.56001 c 0.75991,-2.31522 1.29829,-5.12732 3.8986,-20.36349 2.98124,-17.46812 4.46302,-24.6643 6.67827,-32.43272 2.88418,-10.11424 3.82066,-15.32285 4.99176,-27.76379 0.76184,-8.09322 1.33337,-11.30223 3.15669,-17.72418 1.36393,-4.80394 1.53042,-5.79582 0.97285,-5.79582 -0.52635,0 -6.10216,5.5131 -10.21139,10.09654 -2.05943,2.2971 -7.57714,8.65407 -12.26157,14.1266 -4.68444,5.47253 -10.72115,12.30567 -13.41492,15.18476 -14.69285,15.70368 -26.63103,29.32721 -27.37277,31.23709 -0.59831,1.54055 21.21032,20.58617 34.21303,29.87847 3.49586,2.49829 7.85808,5.07654 8.58914,5.07654 0.14378,0 0.48592,-0.684 0.76031,-1.52 z m 297.63255,-24.23752 c 5.808,-3.4875 10.76152,-6.52542 11.00782,-6.75094 0.37571,-0.34401 -1.78039,-3.19561 -13.39122,-17.71079 -7.61147,-9.51541 -13.91869,-17.30075 -14.01603,-17.30075 -0.41082,0 0.29194,7.041 1.32547,13.28 1.45975,8.8119 1.68199,10.61142 2.27237,18.4 0.61084,8.05849 1.40332,15.9992 1.63397,16.37239 0.21148,0.34219 -1.22092,1.14896 11.16762,-6.28991 z M 338.16324,505.77425 c 13.89405,-1.40683 25.3693,-3.64125 38.09163,-7.41706 9.54158,-2.83181 17.12419,-5.85549 27.26515,-10.87238 16.23192,-8.03018 26.95566,-14.70774 29.97946,-18.66789 2.03877,-2.6701 0.91082,-2.30165 -11.81156,3.85825 -27.92028,13.51839 -53.88448,21.32422 -79.92791,24.02936 -5.31252,0.55181 -24.46926,0.554 -29.6,0.003 -17.85718,-1.9164 -34.94937,-6.88901 -50.24,-14.61627 -9.54407,-4.82318 -17.01095,-10.07456 -24.0876,-16.94058 -5.52806,-5.36352 -8.87583,-9.36266 -13.01814,-15.55105 -6.82023,-10.18906 -11.37415,-20.61177 -14.57357,-33.35503 -2.88385,-11.48636 -3.95655,-20.46275 -3.96804,-33.20497 -0.008,-8.72348 0.0497,-9.60697 1.32537,-20.32 0.73348,-6.16 1.50292,-13.432 1.70986,-16.16 0.60788,-8.01314 0.0628,-15.58396 -1.34444,-18.67244 -0.50198,-1.10173 -1.7653,-1.11978 -4.04634,-0.0578 -6.77696,3.15511 -13.74235,12.02843 -20.54278,26.16978 -9.63267,20.03094 -16.01432,44.1785 -16.01432,60.5966 0,7.88337 1.13104,12.58123 3.72313,15.46426 1.43106,1.59168 3.29095,2.73306 3.73328,2.29103 0.14102,-0.14093 0.47879,-1.03365 0.75059,-1.98382 0.37783,-1.32084 0.51824,-3.79953 0.59636,-10.52759 0.1083,-9.32715 0.54472,-14.02199 1.94513,-20.92504 1.41999,-6.99951 3.5381,-13.28106 5.75237,-17.05942 2.9593,-5.04968 7.73943,-7.2682 9.58649,-4.44923 0.45991,0.70191 0.53178,2.64018 0.61455,16.57428 0.0515,8.67867 0.26112,17.65141 0.46571,19.93941 1.82584,20.41907 7.00098,34.70607 17.82933,49.22133 11.86344,15.9028 25.46332,25.15476 48.59501,33.05906 17.61194,6.01815 30.82714,8.81583 47.38737,10.03198 5.58829,0.41039 24.04656,0.12685 29.82391,-0.45813 z m 3.91677,-18.24804 c 22.79583,-2.34477 46.43116,-8.84064 75.20001,-20.66775 10.75566,-4.42175 25.52571,-12.54987 35.1302,-19.33254 6.18314,-4.36653 12.46729,-10.98175 19.76461,-20.80591 6.08256,-8.18875 10.06519,-15.84462 10.06519,-19.34844 0,-0.84565 -0.0953,-0.89732 -2.37217,-1.2868 -1.31549,-0.22502 -3.01338,-0.30962 -3.81162,-0.18992 -1.5875,0.23806 -8.30893,3.5479 -12.95789,6.38085 -7.51957,4.58222 -12.61129,8.3056 -25.81832,18.87992 -17.89414,14.32708 -25.6035,19.56293 -36.8,24.99289 -17.00353,8.24618 -32.45256,11.54693 -51.14615,10.92758 -37.38135,-1.23851 -70.81986,-15.21956 -84.14513,-35.18209 -7.12164,-10.6689 -12.72832,-29.34211 -16.68624,-55.57399 -1.93499,-12.82459 -3.24035,-24.84983 -5.6175,-51.74992 -2.41998,-27.38477 -3.29998,-35.17035 -4.83882,-42.81008 -0.78607,-3.90256 -2.25476,-8.39494 -3.23185,-9.88551 -1.24379,-1.89742 -2.16085,-2.23303 -5.50029,-2.01288 -11.04749,0.72829 -18.47823,4.92167 -33.70259,19.01935 -12.34362,11.43014 -26.55647,30.62064 -34.64216,46.77461 -2.57374,5.14193 -6.81819,15.35026 -10.6542,25.62443 -3.87967,10.39108 -4.19341,11.49158 -3.96849,13.92 0.64551,6.96958 11.40238,31.80564 14.16575,32.70667 0.23098,0.0753 0.41597,-0.90838 0.53706,-2.85589 0.71121,-11.43768 8.78915,-38.87148 17.4112,-59.13078 11.46581,-26.94135 23.79281,-42.28822 34.88791,-43.43475 4.51159,-0.46622 5.85149,2.12299 5.85149,11.30737 0,6.92128 -0.31578,11.54839 -2.08338,30.52738 -2.03529,21.85325 -2.40427,27.17836 -2.61641,37.76 -0.39795,19.84963 1.74298,34.21861 6.83062,45.84426 7.58553,17.33349 26.06422,34.12687 52.27354,47.50606 14.29666,7.29808 26.69509,11.0018 40.95563,12.23446 2.2,0.19017 4.648,0.40123 5.44,0.46903 2.97344,0.25453 17.61553,-0.14839 22.08,-0.60761 z M 201.15873,459.98552 c -0.10437,-0.27197 -0.47469,-1.63934 -0.82295,-3.03861 -0.42879,-1.72283 -1.19779,-3.50344 -2.38215,-5.51585 -2.91882,-4.95948 -5.37728,-11.6149 -7.23066,-19.57444 -0.46693,-2.00526 -0.85721,-5.79332 -1.30229,-12.64 -1.13925,-17.52524 -2.03118,-23.05661 -3.71785,-23.05661 -0.98456,0 -2.78496,5.81108 -3.7827,12.2093 -0.70972,4.55122 -0.9699,15.90531 -0.50485,22.0307 0.20712,2.728 0.46111,6.544 0.56442,8.48 0.11289,2.11551 0.37816,3.90304 0.66484,4.48 1.2119,2.43904 8.55222,10.48508 12.54518,13.7513 3.07069,2.5118 6.45535,4.14159 5.96901,2.87421 z m 153.64437,-3.49326 c 31.1187,-3.9761 64.05314,-19.58327 97.20892,-46.06596 12.71448,-10.1555 18.01355,-12.6314 35.348,-16.51572 2.1036,-0.47138 2.4285,-0.69591 2.65927,-1.83775 0.097,-0.48005 1.48166,-4.01731 3.07699,-7.86057 2.85709,-6.88294 3.86374,-9.891 3.86374,-11.54559 0,-2.02499 -4.65242,-5.31304 -9.76,-6.89779 -7.85012,-2.43569 -15.59727,1.12544 -37.283,17.13784 -23.52429,17.36997 -33.81107,23.69932 -47.197,29.03984 -26.2557,10.47512 -50.2941,6.89086 -67.29903,-10.03466 -5.15515,-5.13107 -8.5216,-9.88082 -12.14955,-17.14187 -5.81068,-11.62961 -7.7551,-20.49465 -8.69666,-39.65002 -0.48707,-9.90915 -0.90483,-15.97436 -1.60899,-23.36 -0.78215,-8.20372 -1.16837,-13.75363 -1.77039,-25.44 -1.30174,-25.26957 -2.62295,-36.39993 -5.7547,-48.48001 -4.93532,-19.03689 -15.85867,-35.61938 -26.74053,-40.59417 -4.55647,-2.08306 -5.48174,-2.21439 -16.65468,-2.36392 -9.10157,-0.12181 -10.49563,-0.0701 -13.92,0.51612 -15.03247,2.5735 -34.53979,12.11393 -52.76548,25.80595 -11.76799,8.84069 -17.68462,14.74281 -26.78172,26.71602 -14.37357,18.91789 -25.54711,38.73266 -28.78143,51.04001 -0.71084,2.70492 -0.75558,3.41497 -0.73594,11.68 0.0115,4.84 0.20282,11.032 0.42516,13.76 0.63752,7.82238 2.24642,23.43916 2.43412,23.62686 0.37977,0.37977 1.99808,-1.25033 3.24808,-3.27175 0.73055,-1.18141 2.30186,-4.62461 3.49179,-7.65156 7.22297,-18.37383 20.03025,-39.30318 35.21334,-57.54481 5.25006,-6.30766 16.40228,-17.46303 21.63384,-21.63998 12.97239,-10.35731 24.77825,-15.77913 36.10336,-16.58042 2.73809,-0.19373 3.2223,-0.14198 4.72656,0.50513 3.97235,1.70886 6.1,7.18084 7.09084,18.23653 0.40239,4.48984 0.40907,25.9195 0.0116,37.28 -1.74519,49.88303 0.40036,75.96281 7.84562,95.36566 2.47687,6.45488 5.158,11.22522 9.8713,17.56333 16.47192,22.15025 37.18054,34.21558 62.92347,36.66069 4.24194,0.40291 16.02539,0.14281 20.72309,-0.45743 z M 28.409149,429.84001 c 0.518609,-0.66 2.095076,-3 3.50326,-5.2 13.512484,-21.1105 24.670667,-42.39888 25.871767,-49.36 0.267413,-1.54983 0.381251,-1.55358 -6.773393,0.22308 -14.22125,3.53146 -35.193679,10.14267 -36.583272,11.53226 -0.609675,0.60968 -0.181933,3.4447 1.742502,11.54908 3.508212,14.77416 7.756127,27.92217 10.253264,31.73558 0.639219,0.97616 0.889127,0.91575 1.985872,-0.48 z M 386.08002,405.10316 c 12.81106,-1.10175 26.48342,-5.93293 41.44,-14.64297 9.23431,-5.37764 24.15005,-15.81649 37.16747,-26.01184 8.13568,-6.37192 12.1703,-8.59438 17.61904,-9.70541 5.53249,-1.12811 8.71247,-0.50948 14.46334,2.81367 1.74342,1.00743 3.26735,1.71733 3.38652,1.57755 0.11917,-0.13979 0.63189,-3.27815 1.13937,-6.97415 0.76242,-5.55278 0.92456,-7.85943 0.93347,-13.28 0.0105,-6.35627 -0.0138,-6.60808 -0.77986,-8.10789 -1.68473,-3.29826 -6.94983,-7.26415 -12.28695,-9.25502 -2.19103,-0.8173 -3.19561,-0.99484 -6.35514,-1.12311 -2.06401,-0.0838 -5.3529,0.0152 -7.30865,0.21998 -9.83378,1.02965 -16.40842,3.33211 -31.01861,10.8628 -12.13792,6.25638 -26.89974,11.93609 -36.34697,13.98472 -3.33454,0.7231 -8.60274,0.73726 -11.33303,0.0304 -10.8137,-2.7994 -17.4466,-13.42299 -20.11171,-32.21193 -1.48646,-10.47948 -1.49331,-10.71834 -1.39442,-48.62546 0.10626,-40.73313 -0.0352,-44.82331 -1.88178,-54.41455 -1.89917,-9.86435 -7.41559,-21.09826 -14.84935,-30.24 -3.29389,-4.05069 -9.96119,-10.48545 -13.88465,-13.40038 -5.98835,-4.44904 -9.55058,-6.33586 -19.5581,-10.35939 -13.16454,-5.29283 -18.91828,-6.42902 -33.28,-6.57182 -6.3669,-0.0633 -7.19024,-0.004 -11.04,0.78946 -2.288,0.47182 -5.2525,1.0071 -6.58777,1.18951 -4.01622,0.54865 -15.28353,4.61837 -28.45223,10.27688 -6.39425,2.74757 -7.48121,3.31842 -15.68,8.23491 -24.94647,14.9594 -40.60752,27.84295 -53.67142,44.15275 -7.59431,9.48123 -12.69387,17.59883 -19.10129,30.40592 -3.5254,7.04655 -5.78139,12.31266 -7.52534,17.56627 -1.81084,5.45512 -2.78441,10.6759 -1.99084,10.6759 0.58785,0 5.69275,-6.73772 15.51686,-20.48001 7.36664,-10.30469 8.87296,-12.13663 14.35919,-17.46314 20.90844,-20.29976 57.5859,-39.51673 83.09927,-43.53945 4.05663,-0.63961 13.26846,-0.71901 17.31357,-0.14922 9.47733,1.33496 16.04803,4.74687 22.76521,11.82106 4.6244,4.87018 6.71858,8.97625 8.92066,17.49075 3.72488,14.40255 5.13073,26.11957 8.63884,72.00001 3.08193,40.30677 5.13536,57.29751 8.46956,70.08 1.78051,6.82603 2.77888,8.9499 7.0951,15.09367 14.41984,20.52539 30.83083,29.11955 52.11064,27.28948 z M 108.16,390.87388 c 13.60337,-2.93479 23.99884,-10.7333 23.99975,-18.0042 3.1e-4,-2.4219 -1.34217,-6.15339 -3.04713,-8.46967 -0.90681,-1.23196 -1.30233,-1.52 -2.08714,-1.52 -0.94194,0 -63.417655,9.50551 -64.235201,9.77321 -0.690785,0.2262 0.790357,2.67616 2.816424,4.65867 5.775506,5.65133 19.0858,11.91642 29.577495,13.92199 2.845371,0.54391 9.662672,0.35477 12.975802,-0.36 z M 19.283108,379.06785 c 1.978291,-0.61172 6.620893,-1.92123 10.316893,-2.91 3.696,-0.98878 9.600001,-2.64866 13.120001,-3.68863 7.371293,-2.17782 15.086487,-4.08141 21.280001,-5.25046 8.279016,-1.5627 41.480547,-6.87723 47.039997,-7.52964 3.08,-0.36144 7.688,-1.04153 10.24001,-1.51131 6.17102,-1.13596 7.56262,-1.11554 10.53943,0.15468 1.30868,0.55843 2.40279,0.98207 2.43136,0.94142 0.0286,-0.0407 -0.49059,-5.4739 -1.15367,-12.0739 -1.51165,-15.04639 -2.02736,-23.78685 -1.75589,-29.76 0.72832,-16.02566 4.82608,-37.31471 10.40942,-54.08001 10.33358,-31.02901 27.89116,-57.74368 52.3759,-79.69234 18.34472,-16.44461 41.19274,-30.16671 62.93956,-37.80033 6.17455,-2.16741 10.96238,-3.52549 20.12123,-5.70745 4.34904,-1.0361 8.18898,-2.03454 8.5332,-2.21876 0.6117,-0.32737 0.60568,-0.38746 -0.26642,-2.65803 -0.49075,-1.2777 -0.99296,-2.78577 -1.11602,-3.35126 -0.20023,-0.92009 -0.13725,-1.04989 0.59907,-1.23469 0.45256,-0.11359 0.82283,-0.30946 0.82283,-0.43529 0,-0.12582 -1.66581,-24.48221 -3.7018,-54.125308 -2.5307,-36.845715 -3.66074,-55.010136 -3.57201,-57.416542 0.14141,-3.834699 0.76328,-5.744623 2.35715,-7.239395 l 0.81103,-0.760605 0.64642,0.796947 c 1.64169,2.023993 2.7852,5.290315 3.47925,9.938215 0.19587,1.311661 0.47571,8.504839 0.62186,15.984839 0.26489,13.556465 0.46678,15.886712 1.60313,18.503835 0.32133,0.740067 0.33633,0.734536 2.95897,-1.091579 7.32932,-5.103316 17.89035,-13.617561 20.81752,-16.782974 2.18758,-2.36563 4.357,-5.927326 5.60768,-9.206543 0.70654,-1.852516 0.8195,-2.662848 0.83402,-5.98274 0.0198,-4.52314 -0.43215,-5.847886 -2.89207,-8.477736 -3.40526,-3.640507 -9.13514,-5.0935664 -20.15975,-5.1123836 -24.635,-0.042048 -68.71029,10.5229976 -97.7314,23.4266606 -15.6612,6.963439 -38.76027,19.296779 -45.52272,24.306041 -2.19924,1.629079 -4.39728,3.91675 -4.39728,4.57658 0,0.200178 0.79649,0.615032 1.76997,0.921897 4.40949,1.389967 11.50142,5.659492 23.20898,13.972399 7.54081,5.354324 12.68781,8.677476 15.77898,10.187672 2.48818,1.215601 5.19734,2.073731 5.65463,1.79111 0.11385,-0.07037 0.30494,-2.399285 0.42464,-5.175373 0.63567,-14.742363 2.74497,-41.243356 3.59646,-45.185471 0.43715,-2.023826 0.71915,-2.590473 1.93734,-3.892816 l 1.42572,-1.524211 1.86319,0.629209 c 2.30972,0.780003 4.28512,2.433486 5.30003,4.436303 0.42589,0.840459 1.80018,4.100309 3.05398,7.244113 6.04482,15.156919 12.30202,28.359808 18.81539,39.701069 5.19899,9.052614 7.5186,13.446714 15.50677,29.374937 3.97196,7.92 7.96515,15.552 8.87375,16.96 4.48827,6.95515 5.01555,10.4 1.59187,10.4 -0.86234,0 -1.53131,-0.25135 -2.22701,-0.83674 -1.85715,-1.56269 -4.84495,-6.65785 -10.11144,-17.24326 -2.88962,-5.808 -6.85366,-13.368 -8.80897,-16.8 C 229.07838,95.86037 218.14022,76.199646 215.76894,71.680001 211.075,62.733374 207.11852,53.164058 205.08688,45.843922 l -1.08687,-3.916079 -0.9903,-0.0039 -0.99031,-0.0039 -0.21437,4.717915 c -0.11791,2.594853 -0.55983,8.750854 -0.98206,13.68 -0.4296,5.015288 -0.84992,12.907964 -0.95443,17.922085 -0.29738,14.267563 -1.31496,17.074804 -6.04934,16.68868 -3.76618,-0.307161 -9.5182,-3.676522 -25.88982,-15.165497 -4.52684,-3.176766 -9.96294,-6.811732 -12.08021,-8.077702 -3.84007,-2.296077 -9.16274,-4.718573 -9.53958,-4.341732 -0.52494,0.524941 4.76928,9.910164 19.14352,33.936248 12.1275,20.27074 35.59708,60.78539 39.44372,68.09018 0.99556,1.89057 1.09983,2.29341 0.80933,3.12675 -0.3563,1.02207 -1.11283,1.58307 -2.13482,1.58307 -1.43836,0 -8.21332,-10.69252 -25.24332,-39.84 -4.21609,-7.216 -10.08627,-17.224 -13.04485,-22.24 -11.61147,-19.686168 -21.4925,-37.321731 -23.93231,-42.714126 -0.6356,-1.404771 -1.29571,-2.600823 -1.46692,-2.657893 -0.43079,-0.143598 -3.97012,1.675127 -6.28393,3.229076 -7.88188,5.293432 -21.54538,16.820114 -30.2349,25.506491 -3.820233,3.818855 -6.641466,7.226762 -6.281042,7.587182 0.06757,0.0676 1.543291,0.26396 3.279392,0.43643 8.30225,0.82476 18.36733,4.38675 27.52494,9.74097 23.41769,13.6917 41.92213,36.4046 46.57039,57.16188 1.05744,4.7221 1.05555,12.61493 -0.004,16.58999 -1.45362,5.45369 -4.41653,10.17409 -8.14559,12.97727 -5.74153,4.31599 -12.64823,6.02691 -21.37943,5.29608 -7.91205,-0.66226 -14.04334,-2.41377 -21.8898,-6.25321 C 110.98812,193.00292 95.211555,180.24943 86.596634,169.44 78.047565,158.7132 71.68529,146.57364 70.302197,138.34935 c -0.413873,-2.46102 -0.440953,-2.51123 -1.405981,-2.60693 -0.963408,-0.0955 -1.150667,0.152 -8.956674,11.84 -4.384981,6.56567 -9.149729,13.8355 -10.588328,16.15517 -3.322085,5.3567 -14.24551,27.00534 -16.601835,32.90241 -0.984552,2.464 -2.706351,5.992 -3.82622,7.84 -1.479206,2.44098 -2.174412,3.97269 -2.541712,5.6 -0.545639,2.41745 -9.848892,34.87974 -11.398488,39.7733 -1.118045,3.53074 -1.097775,4.85309 0.08302,5.41605 0.454289,0.21659 2.326289,0.61796 4.160001,0.89193 8.318687,1.24291 12.755685,2.78936 26.374021,9.1923 8.208776,3.85953 16.109028,6.80406 16.691813,6.22128 0.233232,-0.23323 -4.039629,-8.20118 -9.124321,-17.01486 -11.07859,-19.20334 -13.177129,-22.96125 -16.17571,-28.9663 -2.059231,-4.12387 -3.77375,-8.08058 -4.609368,-10.63735 -1.325495,-4.05567 -1.328812,-4.07803 -0.877152,-5.9137 0.249355,-1.01346 0.509152,-2.13065 0.577325,-2.48265 0.108166,-0.55849 0.30437,-0.45614 1.540682,0.80375 2.367982,2.41314 4.779461,6.85561 9.560247,17.61205 2.971453,6.68556 4.524784,9.53903 10.043181,18.44934 1.875214,3.02782 3.653011,6.01582 3.95066,6.64 0.297648,0.62418 0.728758,1.13486 0.958021,1.13486 0.229264,0 3.628394,-0.92522 7.553623,-2.05605 9.62969,-2.77424 10.693423,-3.03522 24.197648,-5.93678 13.39356,-2.87778 14.97882,-3.26305 27.7475,-6.74365 16.82686,-4.58681 25.46557,-6.38352 30.6924,-6.38352 4.36282,0 3.93763,0.92725 -1.44654,3.15463 -4.04635,1.67393 -10.28289,3.40679 -22.08,6.13507 -14.41362,3.33339 -22.96302,5.44895 -32.962281,8.15657 -4.919715,1.33217 -12.871814,3.28513 -17.671332,4.33992 -9.615687,2.11324 -13.046395,3.03825 -13.046395,3.51764 0,0.80471 1.035039,2.54139 2.560465,4.29617 1.216636,1.39957 2.47711,3.57652 4.650187,8.03128 2.027814,4.15697 3.297582,6.37754 3.97068,6.94391 0.604453,0.50862 2.450654,1.28078 4.744103,1.9842 2.065011,0.63335 6.490565,2.09007 9.834566,3.23715 8.518504,2.92208 14.596607,4.69597 20.157027,5.88283 2.62835,0.56102 6.80026,1.74177 9.2709,2.62389 2.47064,0.88211 6.18408,2.18753 8.25208,2.90091 3.03539,1.0471 3.76,1.41488 3.76,1.90844 0,0.56928 -0.18178,0.59702 -2.64,0.40287 -14.9385,-1.17984 -40.833471,-7.67228 -58.872712,-14.76068 -3.295987,-1.29514 -6.069667,-2.35479 -6.163734,-2.35479 -0.698064,0 -12.828315,-4.80595 -18.563563,-7.35479 -11.132111,-4.9473 -23.683581,-9.66067 -27.706325,-10.40438 l -1.146324,-0.21192 -1.333753,6.82554 c -6.1286636,31.36374 -7.0114497,67.60613 -2.411073,98.98555 0.791779,5.40077 2.84285,16.29093 3.167062,16.81551 0.09304,0.15054 0.814339,-0.003 1.602893,-0.34086 0.788554,-0.33802 3.052336,-1.11508 5.030626,-1.72681 z m 3.046374,-17.48817 c -0.843929,-0.49187 -1.252364,-2.58484 -1.170789,-5.99954 0.04073,-1.70507 -0.110186,-8.35613 -0.335374,-14.78013 -0.522731,-14.91205 -0.230834,-63.3199 0.389622,-64.61444 0.914555,-1.90815 2.63913,-0.96228 4.182002,2.2937 0.604835,1.27641 2.356078,5.92074 3.891652,10.32074 8.700748,24.93093 18.86223,49.56878 22.238439,53.92 l 0.620737,0.8 0.0071,-2.06785 c 0.0039,-1.13731 -0.36351,-10.64131 -0.816495,-21.12 -0.452986,-10.47868 -0.776986,-20.32802 -0.72,-21.88742 0.102064,-2.79295 0.120146,-2.84907 1.211522,-3.76 0.609352,-0.5086 1.204257,-0.92473 1.322012,-0.92473 0.313177,0 0.842902,2.33268 1.235361,5.44 0.769246,6.09055 1.021803,12.96788 1.1956,32.55704 0.143855,16.21434 0.09771,20.65907 -0.218433,21.04 -0.660908,0.79635 -2.112359,0.57763 -3.344194,-0.50394 -1.916014,-1.68228 -5.471789,-9.00833 -11.480282,-23.6531 -2.202397,-5.368 -4.972799,-11.92 -6.156451,-14.56 -1.183652,-2.64 -3.564767,-8.65237 -5.291368,-13.36082 -1.726601,-4.70846 -3.297565,-8.81246 -3.491032,-9.12 -0.257732,-0.40971 -0.297538,1.96416 -0.148916,8.88082 0.320177,14.9006 0.229133,44.77732 -0.153585,50.4 -0.485507,7.13279 -1.210825,11.05181 -2.041442,11.03027 -0.206351,-0.005 -0.622917,-0.15412 -0.925702,-0.3306 z m 57.454969,-11.83387 c -2.662832,-0.52653 -4.488128,-2.04564 -5.281716,-4.39574 -0.302315,-0.89527 -0.425506,-6.42184 -0.497306,-22.31006 -0.10891,-24.1001 -0.299469,-22.43213 2.738667,-23.97167 5.808347,-2.94332 16.060461,-1.02427 20.50442,3.83813 2.826554,3.09271 3.669814,7.68323 2.000946,10.8927 -0.354867,0.68246 -1.591687,2.39284 -2.748488,3.80084 l -2.103275,2.56 1.361153,0.26571 c 7.117718,1.38944 12.399058,4.75183 14.661458,9.33429 4.72114,9.56259 -2.64155,18.18311 -17.075815,19.99302 -3.038952,0.38105 -11.619495,0.37648 -13.560044,-0.007 z m 13.175553,-4.47611 c 9.388626,-1.05968 14.001796,-4.41167 14.019416,-10.18672 0.008,-2.60261 -0.57035,-4.03391 -2.34809,-5.81164 -2.75059,-2.7506 -7.708708,-4.19299 -14.391326,-4.18666 -5.620604,0.005 -9.594919,0.86458 -11.529932,2.49279 l -0.950069,0.79943 v 8.61155 8.61156 l 6.160001,-0.003 c 3.388,-0.001 7.456,-0.1489 9.04,-0.32768 z M 81.713813,321.10249 c 1.081405,-0.27364 3.406191,-1.1965 5.166191,-2.0508 8.073279,-3.91876 11.147869,-10.03976 6.887516,-13.71189 -1.829274,-1.57671 -7.774232,-3.2625 -11.489433,-3.25801 -1.819451,0.002 -3.681314,0.49555 -4.191889,1.11075 -0.289835,0.34923 -0.326236,2.64562 -0.149549,9.43452 l 0.233528,8.97295 H 78.9589 c 0.433798,0 1.673508,-0.22389 2.754913,-0.49752 z m 554.390897,22.46062 c 0.39526,-2.14514 0.56179,-38.06481 0.18108,-39.05693 -0.37795,-0.98493 -1.82623,-0.56689 -3.81216,1.10037 -8.83686,7.41888 -13.38005,10.35564 -37.11361,23.9906 -12.24032,7.03209 -15.71566,9.21376 -15.55191,9.76286 0.0857,0.28752 51.42501,6.12048 54.6166,6.20532 l 1.30469,0.0347 z M 419.31253,330.88148 c 11.25583,-1.97425 20.60335,-5.20854 43.72749,-15.12993 6.776,-2.90724 13.688,-5.74488 15.36,-6.30586 2.95811,-0.99248 3.16651,-1.01703 7.73613,-0.91121 l 4.69613,0.10875 4.58387,2.32483 c 2.52113,1.27865 4.75571,2.32193 4.96573,2.31839 1.24616,-0.021 1.6708,-2.52808 1.05802,-6.24644 -0.17403,-1.056 -0.46813,-4.19209 -0.65356,-6.96909 -0.75289,-11.27515 -3.3842,-15.69583 -10.73135,-18.02898 -5.07233,-1.61076 -14.64621,-1.669 -23.50324,-0.14296 -5.07031,0.8736 -6.83717,1.5203 -14.14231,5.17635 -7.46665,3.73688 -10.06413,4.80911 -13.48877,5.56808 -6.21491,1.37737 -10.44483,-0.67538 -13.195,-6.4034 -3.57801,-7.45226 -4.20525,-19.12065 -2.53728,-47.20001 1.2508,-21.05646 0.28177,-33.91762 -3.38276,-44.89696 -3.18316,-9.53709 -7.73518,-16.69302 -15.62044,-24.55585 -15.79665,-15.75171 -37.62055,-24.94752 -63.70518,-26.84306 -5.87049,-0.4266 -25.45962,-0.80583 -27.30793,-0.52866 -1.14402,0.17155 -1.49207,0.35883 -1.49207,0.80287 0,0.50162 0.39608,0.60781 2.96,0.7936 11.63891,0.84338 24.171,4.80765 33.49339,10.59497 5.94874,3.69296 15.00731,11.8912 19.96991,18.07328 12.80035,15.94582 16.0173,29.82849 15.4606,66.71981 -0.5643,37.39552 -0.60969,48.5233 -0.22022,53.98666 1.32134,18.53496 4.89097,28.00456 12.73462,33.78268 6.40294,4.71681 12.64976,5.76863 23.23422,3.91214 z m 34.00557,-53.9323 c 1.56306,-0.26995 5.50592,-1.12725 8.76192,-1.9051 9.52724,-2.27602 10.59209,-2.40407 19.99182,-2.40407 7.55459,0 8.57281,0.0636 10.24818,0.64 1.02311,0.352 2.64568,0.64 3.60571,0.64 h 1.74552 l -0.2113,-1.2 c -0.34139,-1.93883 -1.15421,-4.24941 -2.30533,-6.55329 -0.59174,-1.18431 -1.5166,-3.26273 -2.05525,-4.61871 -1.9761,-4.97453 -3.131,-5.67627 -9.25935,-5.62613 -2.2,0.018 -5.944,0.25756 -8.32,0.53235 -5.32212,0.61551 -7.85848,0.6264 -10.59904,0.0455 -6.3621,-1.34854 -10.38923,-5.84194 -11.91962,-13.29973 -0.67941,-3.31082 -1.16106,-9.72539 -1.16283,-15.48647 -0.003,-10.53673 -1.00269,-19.72009 -2.72012,-24.99353 -2.03579,-6.251 -4.17734,-9.31695 -11.98467,-17.15784 -7.04458,-7.07486 -11.63078,-10.50674 -15.1687,-11.3508 -0.89758,-0.21414 -0.91072,-0.1977 -0.69158,0.86518 0.12286,0.5959 1.20409,3.53146 2.40273,6.52346 5.79819,14.4732 6.41443,18.8824 5.7719,41.29744 -0.68093,23.75466 -0.2565,34.74873 1.60892,41.67584 1.74445,6.47792 5.67705,10.98224 10.8286,12.4029 2.068,0.57029 8.056,0.55615 11.43249,-0.027 z m 33.08192,-29.07547 c 0,-0.95241 -1.8702,-5.54453 -3.8583,-9.47371 -6.50461,-12.8554 -16.87427,-27.86679 -21.03853,-30.45592 -0.58126,-0.36139 -1.10121,-0.60465 -1.15545,-0.54058 -0.38237,0.45171 -1.30593,13.952 -1.29956,18.9965 0.008,6.59858 0.33754,8.61096 1.95318,11.93964 2.5087,5.16868 8.92412,8.44977 18.19866,9.30752 3.19903,0.29586 7.2,0.42175 7.2,0.22655 z M 157.01037,198.28163 c 6.15372,-2.00557 9.89762,-6.12863 11.66067,-12.84163 0.88804,-3.38132 0.96342,-10.02255 0.15617,-13.76 -3.22836,-14.9469 -15.49659,-32.28908 -32.42024,-45.82877 -10.98027,-8.7847 -22.12222,-14.4077 -32.23468,-16.26783 -2.12964,-0.39174 -4.14744,-0.4957 -7.839998,-0.40392 -7.095355,0.17635 -6.582283,-0.12295 -13.735299,8.01261 -6.19067,7.04103 -7.397519,9.1538 -7.395968,12.94777 0.0032,7.73641 3.944512,18.67241 10.066,27.92998 12.069392,18.25262 32.874065,34.29989 51.212985,39.50211 5.1421,1.45867 7.60946,1.77544 12.96,1.66386 4.32959,-0.0903 5.29177,-0.21156 7.57036,-0.95418 z M 534.3316,178.14159 c 5.17925,-6.45733 9.70285,-12.42857 14.95551,-19.74159 9.41049,-13.10174 16.31419,-24.76502 14.15291,-23.91028 -2.70553,1.06998 -55.74029,23.30391 -55.85095,23.41457 -0.40838,0.40838 2.6349,5.65106 7.8247,13.47968 6.00129,9.05271 8.42921,13.31354 9.09655,15.96378 l 0.39694,1.57639 2.50583,-2.64048 c 1.37821,-1.45227 4.49154,-5.1162 6.91851,-8.14207 z M 445.57311,140 c 1.45225,-1.936 5.5679,-7.696 9.14589,-12.8 6.87515,-9.80737 11.88274,-16.58242 14.94675,-20.2223 1.01985,-1.21153 4.39006,-5.22114 7.48935,-8.910242 3.09929,-3.689101 7.53828,-8.723456 9.86442,-11.187456 2.32613,-2.464 5.98235,-6.629465 8.12492,-9.256588 2.14257,-2.627123 5.01158,-6.119742 6.37558,-7.761375 1.364,-1.641633 2.48,-3.111412 2.48,-3.266176 0,-0.59555 -2.75267,-2.716357 -8.0704,-6.217886 -16.3912,-10.792988 -41.39843,-24.217976 -45.11174,-24.217976 -0.53005,0 -0.57798,0.37732 -0.57935,4.56 -0.003,7.833513 -0.49468,14.121307 -2.71613,34.70356 -0.44067,4.082958 -0.94569,10.820961 -1.12225,14.97334 -0.37754,8.878919 -0.86369,13.788799 -2.5668,25.923099 -1.84107,13.11728 -2.92222,23.88007 -2.86033,28.47454 l 0.013,0.96546 0.97332,-1.12 c 0.53533,-0.616 2.16152,-2.704 3.61376,-4.64 z m -148.4531,-12.75222 c 4.0158,-1.94668 9.55253,-5.16929 13.76,-8.00889 4.12395,-2.78324 8.68456,-7.44135 10.03264,-10.24714 4.69048,-9.762415 0.89545,-22.970602 -9.43613,-32.841332 -6.45423,-6.166336 -18.71131,-11.994033 -22.19309,-10.551831 -0.71807,0.297434 -0.9998,0.669923 -1.16246,1.536959 -0.33819,1.802743 0.10947,14.226297 0.80371,22.304456 0.34789,4.048 0.72229,10.671998 0.832,14.719998 0.3569,13.16886 0.96427,21.21197 1.79422,23.76 0.48032,1.47465 1.3592,1.36856 5.56911,-0.67222 z"
       id="path1" />
  </g>
</svg>
